<?xml version="1.0" encoding="UTF-8"?>
<!DOCTYPE svg PUBLIC "-//W3C//DTD SVG 1.1//EN" "http://www.w3.org/Graphics/SVG/1.1/DTD/svg11.dtd">
<svg version="1.1" xmlns="http://www.w3.org/2000/svg" xmlns:xlink="http://www.w3.org/1999/xlink" viewBox="0, 0, 96, 96">
  <g id="yay">
    <path d="M48.5,93.5 C23.647,93.5 3.5,73.353 3.5,48.5 C3.5,23.647 23.647,3.5 48.5,3.5 C73.353,3.5 93.5,23.647 93.5,48.5 C93.5,73.353 73.353,93.5 48.5,93.5 z" fill-opacity="0" stroke="#8845AD" stroke-width="5"/>
    <g>
      <g>
        <path d="M24.5,40.5 C20.082,40.5 16.5,36.918 16.5,32.5 C16.5,28.082 20.082,24.5 24.5,24.5 C28.918,24.5 32.5,28.082 32.5,32.5 C32.5,36.918 28.918,40.5 24.5,40.5 z" fill-opacity="0" stroke="#8845AD" stroke-width="5"/>
        <path d="M24,34.27 C22.746,34.27 21.73,33.254 21.73,32 C21.73,30.746 22.746,29.73 24,29.73 C25.254,29.73 26.27,30.746 26.27,32 C26.27,33.254 25.254,34.27 24,34.27 z" fill="#8845AD"/>
      </g>
      <g>
        <path d="M72.5,40.5 C68.082,40.5 64.5,36.918 64.5,32.5 C64.5,28.082 68.082,24.5 72.5,24.5 C76.918,24.5 80.5,28.082 80.5,32.5 C80.5,36.918 76.918,40.5 72.5,40.5 z" fill-opacity="0" stroke="#8845AD" stroke-width="5"/>
        <path d="M72,34.27 C70.746,34.27 69.73,33.254 69.73,32 C69.73,30.746 70.746,29.73 72,29.73 C73.254,29.73 74.27,30.746 74.27,32 C74.27,33.254 73.254,34.27 72,34.27 z" fill="#8845AD"/>
      </g>
    </g>
    <path d="M72.594,60.545 C60.612,84.509 36.3,84.494 24.486,60.525" fill-opacity="0" stroke="#8845AD" stroke-width="5"/>
  </g>
</svg>
