<?xml version="1.0" encoding="UTF-8"?>
<!DOCTYPE svg PUBLIC "-//W3C//DTD SVG 1.1//EN" "http://www.w3.org/Graphics/SVG/1.1/DTD/svg11.dtd">
<svg version="1.1" xmlns="http://www.w3.org/2000/svg" xmlns:xlink="http://www.w3.org/1999/xlink" x="0" y="0" width="96" height="96" viewBox="0, 0, 96, 96">
  <g id="Background">
    <rect x="0" y="0" width="96" height="96" fill="#E4BE45"/>
  </g>
  <g id="Layer_1">
    <path d="M42.481,41.831 L40.556,56.615 L45.946,56.615 L45.946,63.391 L39.632,63.391 L38.092,75.326 L29.853,75.326 L31.393,63.391 L22.538,63.391 L20.921,75.326 L12.759,75.326 L14.299,63.391 L9.063,63.391 L9.063,56.615 L15.223,56.615 L17.148,41.831 L11.681,41.831 L11.681,34.978 L18.072,34.978 L19.535,23.505 L27.774,23.505 L26.234,34.978 L35.166,34.978 L36.706,23.505 L44.945,23.505 L43.405,34.978 L48.564,34.978 L48.564,41.831 z M23.462,56.615 L32.317,56.615 L34.319,41.831 L25.31,41.831 z" fill="#2F9B4C"/>
    <path d="M62.543,39.213 Q64.545,36.518 67.471,34.978 Q70.397,33.438 73.631,33.438 Q77.635,33.438 80.523,34.94 Q83.41,36.441 85.258,39.252 Q87.106,42.062 87.992,46.028 Q88.877,49.993 88.877,54.844 Q88.877,59.541 87.799,63.507 Q86.721,67.472 84.642,70.36 Q82.563,73.247 79.522,74.864 Q76.48,76.481 72.476,76.481 Q65.854,76.481 61.85,71.322 L61.388,75.326 L52.687,75.326 L52.687,18.269 L62.543,17.191 z M69.935,69.089 Q74.016,69.089 76.288,65.74 Q78.559,62.39 78.559,54.921 Q78.559,47.221 76.519,44.026 Q74.478,40.83 70.705,40.83 Q68.164,40.83 66.085,42.447 Q64.006,44.064 62.543,46.297 L62.543,64.7 Q63.852,66.779 65.777,67.934 Q67.702,69.089 69.935,69.089 z" fill="#8845AD"/>
  </g>
</svg>
