<?xml version="1.0" encoding="UTF-8"?>
<!DOCTYPE svg PUBLIC "-//W3C//DTD SVG 1.1//EN" "http://www.w3.org/Graphics/SVG/1.1/DTD/svg11.dtd">
<svg version="1.1" xmlns="http://www.w3.org/2000/svg" xmlns:xlink="http://www.w3.org/1999/xlink" viewBox="0, 0, 100, 100">
  <g id="logo-meh">
    <g>
      <path d="M82.5,94.5 C75.873,94.5 70.5,89.127 70.5,82.5 C70.5,75.873 75.873,70.5 82.5,70.5 C89.127,70.5 94.5,75.873 94.5,82.5 C94.5,89.127 89.127,94.5 82.5,94.5 z" fill-opacity="0" stroke="#8845AD" stroke-width="1.5"/>
      <path d="M88.415,85.422 C87.314,85.893 76.001,85.2 75.421,85.264" fill-opacity="0" stroke="#8845AD" stroke-width="1.5"/>
      <g>
        <g>
          <path d="M77.811,77.493 L74.389,77.449" fill-opacity="0" stroke="#8845AD" stroke-width="1.5"/>
          <g>
            <path d="M76.1,80.367 C74.922,80.367 73.967,79.412 73.967,78.233 C73.967,77.055 74.922,76.1 76.1,76.1 C77.278,76.1 78.233,77.055 78.233,78.233 C78.233,79.412 77.278,80.367 76.1,80.367 z" fill-opacity="0" stroke="#8845AD" stroke-width="1.5"/>
            <path d="M75.6,78.339 C75.266,78.339 74.995,78.068 74.995,77.733 C74.995,77.399 75.266,77.128 75.6,77.128 C75.934,77.128 76.205,77.399 76.205,77.733 C76.205,78.068 75.934,78.339 75.6,78.339 z" fill="#8845AD"/>
          </g>
        </g>
        <g>
          <path d="M90.611,77.493 L87.189,77.449" fill-opacity="0" stroke="#8845AD" stroke-width="1.5"/>
          <g>
            <path d="M88.9,80.367 C87.722,80.367 86.767,79.412 86.767,78.233 C86.767,77.055 87.722,76.1 88.9,76.1 C90.078,76.1 91.033,77.055 91.033,78.233 C91.033,79.412 90.078,80.367 88.9,80.367 z" fill-opacity="0" stroke="#8845AD" stroke-width="1.5"/>
            <path d="M88.4,78.339 C88.066,78.339 87.795,78.068 87.795,77.733 C87.795,77.399 88.066,77.128 88.4,77.128 C88.734,77.128 89.005,77.399 89.005,77.733 C89.005,78.068 88.734,78.339 88.4,78.339 z" fill="#8845AD"/>
          </g>
        </g>
      </g>
    </g>
  </g>
  <g id="logo-dunno">
    <g>
      <path d="M14.5,94.5 C7.873,94.5 2.5,89.127 2.5,82.5 C2.5,75.873 7.873,70.5 14.5,70.5 C21.127,70.5 26.5,75.873 26.5,82.5 C26.5,89.127 21.127,94.5 14.5,94.5 z" fill-opacity="0" stroke="#8845AD" stroke-width="1.5"/>
      <path d="M16.444,88.99 C16.486,86.171 8.397,87.913 8.473,84.291" fill-opacity="0" stroke="#8845AD" stroke-width="1.5"/>
      <path d="M8.1,80.367 C6.922,80.367 5.967,79.412 5.967,78.233 C5.967,77.055 6.922,76.1 8.1,76.1 C9.278,76.1 11.403,78.772 11.403,79.951 C11.403,81.129 9.278,80.367 8.1,80.367 z" fill-opacity="0" stroke="#8845AD" stroke-width="1.5"/>
      <path d="M6.868,78.411 C6.352,78.411 5.934,77.993 5.934,77.477 C5.934,76.962 6.352,76.544 6.868,76.544 C7.383,76.544 7.801,76.962 7.801,77.477 C7.801,77.993 7.383,78.411 6.868,78.411 z" fill="#8845AD"/>
      <path d="M19.47,80.367 C18.292,80.367 17.336,79.412 17.336,78.233 C17.336,77.055 18.292,76.1 19.47,76.1 C20.648,76.1 22.772,78.772 22.772,79.951 C22.772,81.129 20.648,80.367 19.47,80.367 z" fill-opacity="0" stroke="#8845AD" stroke-width="1.5"/>
      <path d="M18.238,78.411 C17.722,78.411 17.304,77.993 17.304,77.477 C17.304,76.962 17.722,76.544 18.238,76.544 C18.753,76.544 19.171,76.962 19.171,77.477 C19.171,77.993 18.753,78.411 18.238,78.411 z" fill="#8845AD"/>
    </g>
  </g>
  <g id="logo-grrr">
    <g>
      <path d="M82.5,26.5 C75.873,26.5 70.5,21.127 70.5,14.5 C70.5,7.873 75.873,2.5 82.5,2.5 C89.127,2.5 94.5,7.873 94.5,14.5 C94.5,21.127 89.127,26.5 82.5,26.5 z" fill-opacity="0" stroke="#8845AD" stroke-width="1.5"/>
      <path d="M88.886,22.188 C92.056,14.009 72.955,13.938 76.089,22.177" fill-opacity="0" stroke="#8845AD" stroke-width="1.5"/>
      <g>
        <g>
          <path d="M78.951,13.751 C77.773,13.751 76.385,10.582 76.385,9.404 C76.385,8.225 77.773,9.484 78.951,9.484 C80.13,9.484 81.085,10.439 81.085,11.617 C81.085,12.796 80.13,13.751 78.951,13.751 z" fill-opacity="0" stroke="#8845AD" stroke-width="1.5"/>
          <path d="M78.6,12.832 C78.266,12.832 77.994,12.561 77.994,12.227 C77.994,11.892 78.266,11.621 78.6,11.621 C78.934,11.621 79.205,11.892 79.205,12.227 C79.205,12.561 78.934,12.832 78.6,12.832 z" fill="#8845AD"/>
        </g>
        <g>
          <path d="M86.027,13.751 C87.206,13.751 88.594,10.582 88.594,9.404 C88.594,8.225 87.206,9.484 86.027,9.484 C84.849,9.484 83.894,10.439 83.894,11.617 C83.894,12.796 84.849,13.751 86.027,13.751 z" fill-opacity="0" stroke="#8845AD" stroke-width="1.5"/>
          <path d="M85.379,12.832 C85.713,12.832 85.984,12.561 85.984,12.227 C85.984,11.892 85.713,11.621 85.379,11.621 C85.044,11.621 84.773,11.892 84.773,12.227 C84.773,12.561 85.044,12.832 85.379,12.832 z" fill="#8845AD"/>
        </g>
      </g>
    </g>
  </g>
  <g id="logo-yay">
    <g>
      <path d="M14.5,26.5 C7.873,26.5 2.5,21.127 2.5,14.5 C2.5,7.873 7.873,2.5 14.5,2.5 C21.127,2.5 26.5,7.873 26.5,14.5 C26.5,21.127 21.127,26.5 14.5,26.5 z" fill-opacity="0" stroke="#8845AD" stroke-width="1.5"/>
      <g>
        <g>
          <path d="M8.1,12.367 C6.922,12.367 5.967,11.412 5.967,10.233 C5.967,9.055 6.922,8.1 8.1,8.1 C9.278,8.1 10.233,9.055 10.233,10.233 C10.233,11.412 9.278,12.367 8.1,12.367 z" fill-opacity="0" stroke="#8845AD" stroke-width="1.5"/>
          <path d="M7.6,10.339 C7.266,10.339 6.995,10.068 6.995,9.733 C6.995,9.399 7.266,9.128 7.6,9.128 C7.934,9.128 8.205,9.399 8.205,9.733 C8.205,10.068 7.934,10.339 7.6,10.339 z" fill="#8845AD"/>
        </g>
        <g>
          <path d="M20.9,12.367 C19.722,12.367 18.767,11.412 18.767,10.233 C18.767,9.055 19.722,8.1 20.9,8.1 C22.078,8.1 23.033,9.055 23.033,10.233 C23.033,11.412 22.078,12.367 20.9,12.367 z" fill-opacity="0" stroke="#8845AD" stroke-width="1.5"/>
          <path d="M20.4,10.339 C20.066,10.339 19.795,10.068 19.795,9.733 C19.795,9.399 20.066,9.128 20.4,9.128 C20.734,9.128 21.005,9.399 21.005,9.733 C21.005,10.068 20.734,10.339 20.4,10.339 z" fill="#8845AD"/>
        </g>
      </g>
      <path d="M20.925,17.712 C17.73,24.102 11.247,24.098 8.096,17.707" fill-opacity="0" stroke="#8845AD" stroke-width="1.5"/>
    </g>
  </g>
  <g id="logo-hash">
    <path d="M40.346,-1.755 L32.712,99.971" fill-opacity="0" stroke="#8845AD" stroke-width="1.5"/>
    <path d="M40.346,-1.755 L32.712,99.971" fill-opacity="0" stroke="#8845AD" stroke-width="1.5"/>
    <path d="M40.346,-1.755 L32.712,99.971" fill-opacity="0" stroke="#8845AD" stroke-width="1.5"/>
    <path d="M40.346,-1.755 L32.712,99.971" fill-opacity="0" stroke="#8845AD" stroke-width="1.5"/>
    <path d="M65.134,-1.755 L57.5,99.971" fill-opacity="0" stroke="#8845AD" stroke-width="1.5"/>
    <path d="M109.083,36.5 L-12.662,36.5" fill-opacity="0" stroke="#8845AD" stroke-width="1.5"/>
    <path d="M109.083,60.5 L-12.662,60.5" fill-opacity="0" stroke="#8845AD" stroke-width="1.5"/>
  </g>
</svg>
